<?xml version="1.0" encoding="utf-8"?>
<!-- Generator: Adobe Illustrator 24.1.1, SVG Export Plug-In . SVG Version: 6.00 Build 0)  -->
<svg version="1.1" id="Layer_1" xmlns="http://www.w3.org/2000/svg" xmlns:xlink="http://www.w3.org/1999/xlink" x="0px" y="0px"
	 viewBox="0 0 512 512" style="enable-background:new 0 0 512 512;" xml:space="preserve">
<g>
	<path d="M256,23.3l-12.7,19.5l222.1,144.4l0,137.6L256,461L46.5,324.8V187.2L268.7,42.8L256,23.3l-12.7,19.5L256,23.3L243.3,3.8
		L10.6,155C4,159.3,0,166.7,0,174.5v162.9c0,7.9,4,15.2,10.6,19.5l232.7,151.3c7.7,5,17.7,5,25.4,0L501.4,357
		c6.6-4.3,10.6-11.7,10.6-19.5V174.5c0-7.9-4-15.2-10.6-19.5L268.7,3.8c-7.7-5-17.7-5-25.4,0L256,23.3z"/>
	<path d="M279.3,488.7V337.5c0-12.9-10.4-23.3-23.3-23.3c-12.9,0-23.3,10.4-23.3,23.3v151.3c0,12.9,10.4,23.3,23.3,23.3
		C268.9,512,279.3,501.6,279.3,488.7"/>
	<path d="M475.4,155.5L256,309L36.6,155.5c-10.5-7.4-25-4.8-32.4,5.7c-7.4,10.5-4.8,25,5.7,32.4l232.7,162.9c8,5.6,18.7,5.6,26.7,0
		l232.7-162.9c10.5-7.4,13.1-21.9,5.7-32.4C500.4,150.7,485.9,148.1,475.4,155.5L475.4,155.5z"/>
	<path d="M36.6,356.5L256,203l219.4,153.6c10.5,7.4,25,4.8,32.4-5.7c7.4-10.5,4.8-25-5.7-32.4L269.3,155.5c-8-5.6-18.7-5.6-26.7,0
		L9.9,318.4c-10.5,7.4-13.1,21.9-5.7,32.4C11.6,361.3,26.1,363.9,36.6,356.5L36.6,356.5z"/>
	<path d="M232.7,23.3v151.3c0,12.9,10.4,23.3,23.3,23.3c12.9,0,23.3-10.4,23.3-23.3V23.3C279.3,10.4,268.9,0,256,0
		C243.1,0,232.7,10.4,232.7,23.3"/>
</g>
</svg>
