<?xml version="1.0" encoding="utf-8"?>
<!-- Generator: Adobe Illustrator 24.1.1, SVG Export Plug-In . SVG Version: 6.00 Build 0)  -->
<svg version="1.1" id="Layer_1" xmlns="http://www.w3.org/2000/svg" xmlns:xlink="http://www.w3.org/1999/xlink" x="0px" y="0px"
	 viewBox="0 0 512 512" style="enable-background:new 0 0 512 512;" xml:space="preserve">
<style type="text/css">
	.st0{fill:#333333;}
</style>
<g id="XMLID_1_">
	<path id="XMLID_3_" class="st0" d="M255.5,6.7C114.3,6.7,0,121,0,262.2c0,113.4,73.4,209.1,174.7,242.5c13,2.8,17.7-5.6,17.7-12.1
		c0-6.5,0-26,0-47.4c-71.5,15.8-86.4-29.7-86.4-29.7c-12.1-29.7-28.8-37.2-28.8-37.2c-23.2-15.8,1.9-15.8,1.9-15.8
		c26,1.9,39,26,39,26c23.2,39,59.5,27.9,74.3,21.4c1.9-16.7,9.3-27.9,15.8-34.4C151.5,369.1,92,346.8,92,249.2
		c0-27.9,10.2-51.1,26-68.8c-2.8-6.5-11.2-32.5,2.8-67.8c0,0,21.4-6.5,70.6,26c20.4-5.6,41.8-8.4,64.1-8.4c21.4,0,43.7,2.8,64.1,8.4
		c48.3-33.5,70.6-26,70.6-26c13.9,35.3,5.6,61.3,2.8,67.8c16.7,17.7,26,40.9,26,68.8c0,98.5-59.5,119.9-117.1,126.4
		c9.3,8.4,17.7,23.2,17.7,47.4c0,34.4,0,61.3,0,69.7c0,6.5,4.6,14.9,17.7,12.1C438.6,471.3,512,375.6,512,262.2
		C511.1,121,396.8,6.7,255.5,6.7z"/>
	<path id="XMLID_4_" class="st0" d="M96.6,373.7c-0.9,0.9-2.8,1.9-4.6,0.9c-1.9-0.9-2.8-2.8-1.9-3.7c0.9-0.9,2.8-1.9,4.6-0.9
		C96.6,370,97.6,371.9,96.6,373.7z"/>
	<path id="XMLID_5_" class="st0" d="M106.9,384.9c-0.9,0.9-3.7,0.9-5.6-0.9c-1.9-1.9-1.9-3.7-0.9-5.6c0.9-0.9,3.7-0.9,5.6,0.9
		C107.8,381.2,108.7,384,106.9,384.9z"/>
	<path id="XMLID_6_" class="st0" d="M117.1,399.8c-1.9,0.9-3.7,0-5.6-1.9c-1.9-1.9-1.9-4.6,0-6.5c1.9-0.9,3.7,0,5.6,1.9
		C118.9,396,118.9,398.8,117.1,399.8z"/>
	<path id="XMLID_7_" class="st0" d="M131,413.7c-1.9,1.9-4.6,0.9-6.5-0.9c-1.9-1.9-2.8-4.6-1.9-6.5c1.9-1.9,4.6-0.9,6.5,0.9
		C131.9,409,132.9,412.8,131,413.7z"/>
	<path id="XMLID_8_" class="st0" d="M149.6,422.1c-0.9,1.9-3.7,2.8-6.5,1.9c-2.8-0.9-4.6-2.8-4.6-5.6c0.9-1.9,3.7-2.8,6.5-1.9
		C148.7,417.4,150.5,420.2,149.6,422.1z"/>
	<path id="XMLID_9_" class="st0" d="M171,423.9c0,1.9-2.8,3.7-5.6,3.7c-2.8,0-5.6-1.9-5.6-3.7c0-1.9,2.8-3.7,5.6-3.7
		C168.2,420.2,171,421.1,171,423.9z"/>
	<path id="XMLID_10_" class="st0" d="M190.5,420.2c0,1.9-1.9,3.7-4.6,4.6c-2.8,0.9-5.6-0.9-6.5-2.8c0-1.9,1.9-4.6,4.6-4.6
		C187.7,417.4,190.5,418.3,190.5,420.2z"/>
</g>
</svg>
