<?xml version="1.0" standalone="no"?>
<!DOCTYPE svg PUBLIC "-//W3C//DTD SVG 20010904//EN"
 "http://www.w3.org/TR/2001/REC-SVG-20010904/DTD/svg10.dtd">
<svg version="1.0" xmlns="http://www.w3.org/2000/svg"
 width="1348.000000pt" height="1348.000000pt" viewBox="0 0 1348.000000 1348.000000"
 preserveAspectRatio="xMidYMid meet">

<g transform="translate(0.000000,1348.000000) scale(0.100000,-0.100000)"
fill="#000000" stroke="none">
<path d="M6580 13474 c-702 -47 -1280 -268 -1825 -698 -109 -86 -3844 -3809
-3984 -3971 -179 -208 -308 -403 -435 -656 -165 -330 -261 -652 -312 -1045
-20 -157 -23 -540 -5 -694 74 -629 292 -1157 685 -1655 86 -109 3809 -3844
3971 -3984 208 -179 403 -308 656 -435 330 -165 652 -261 1045 -312 157 -20
540 -23 694 -5 629 74 1157 292 1655 685 109 86 3844 3809 3984 3971 768 891
978 2138 544 3230 -121 304 -263 549 -477 820 -86 109 -3809 3844 -3971 3984
-477 411 -1061 669 -1691 745 -122 15 -434 27 -534 20z m325 -4524 c543 -45
1020 -264 1400 -645 218 -217 380 -460 490 -735 238 -591 210 -1260 -75 -1824
-243 -481 -657 -863 -1150 -1061 -591 -238 -1260 -210 -1824 75 -481 243 -863
657 -1061 1150 -333 828 -141 1764 490 2395 460 461 1094 697 1730 645z"/>
</g>
</svg>
