<?xml version="1.0" encoding="utf-8"?>
<!-- Generator: Adobe Illustrator 24.1.1, SVG Export Plug-In . SVG Version: 6.00 Build 0)  -->
<svg version="1.1" id="Layer_1" xmlns="http://www.w3.org/2000/svg" xmlns:xlink="http://www.w3.org/1999/xlink" x="0px" y="0px"
	 viewBox="0 0 512 512" style="enable-background:new 0 0 512 512;" xml:space="preserve">
<style type="text/css">
	.st0{fill:#CB3837;}
	.st1{fill:#FFFFFF;}
</style>
<g>
	<polygon class="st0" points="0,156.2 0,327.2 142.3,327.2 142.3,355.8 256,355.8 256,327.2 512,327.2 512,156.2 	"/>
	<polygon class="st1" points="85,184.8 28.7,184.8 28.7,213.5 28.7,298.5 85,298.5 85,213.5 113.7,213.5 113.7,298.5 142.3,298.5 
		142.3,213.5 142.3,184.8 	"/>
	<path class="st1" d="M171,184.8v107.7v5.9v28.7h57.3v-28.7h56.3V184.8H171z M256,269.8h-27.7v-56.3H256V269.8z"/>
	<polygon class="st1" points="369.7,184.8 313.3,184.8 313.3,213.5 313.3,298.5 369.7,298.5 369.7,213.5 398.3,213.5 398.3,298.5 
		427,298.5 427,213.5 455.7,213.5 455.7,298.5 484.3,298.5 484.3,213.5 484.3,186.8 484.3,184.8 	"/>
</g>
</svg>
