<?xml version="1.0" encoding="utf-8"?>
<svg id="master-artboard" viewBox="0 0 1400 980" version="1.1" xmlns="http://www.w3.org/2000/svg" x="0px" y="0px" style="enable-background:new 0 0 336 235.2;" width="1400px" height="980px"><g transform="matrix(1.7274460643462841, 0, 0, 1.727861762046814, 283.1989875777459, 0.00000847487444843864)"><g>
	<g>
		<path d="M270.488,44.654c-1.023-1.044-2.172-1.914-3.405-2.619V15.5c0-8.547-6.953-15.5-15.5-15.5h-16&#10;&#9;&#9;&#9;c-8.547,0-15.5,6.953-15.5,15.5v26.535c-1.233,0.705-2.382,1.575-3.405,2.619c-2.939,3.002-4.511,6.969-4.423,11.169L212.591,72&#10;&#9;&#9;&#9;h-1.008c-12.958,0-23.5,10.542-23.5,23.5v112c0,4.143,3.358,7.5,7.5,7.5c4.142,0,7.5-3.357,7.5-7.5v-112&#10;&#9;&#9;&#9;c0-4.687,3.813-8.5,8.5-8.5h1.321l6.848,328.676c0.214,10.254,7.051,18.977,16.332,22.095V455.5c0,4.143,3.358,7.5,7.5,7.5&#10;&#9;&#9;&#9;c4.142,0,7.5-3.357,7.5-7.5v-17.729c9.281-3.118,16.118-11.841,16.332-22.095l7.497-359.853&#10;&#9;&#9;&#9;C274.999,51.623,273.428,47.656,270.488,44.654z M235.083,15.5c0-0.275,0.224-0.5,0.5-0.5h16c0.276,0,0.5,0.225,0.5,0.5V40h-17&#10;&#9;&#9;&#9;V15.5z M252.417,415.363c-0.099,4.763-4.054,8.637-8.817,8.637h-0.033c-4.763,0-8.719-3.874-8.818-8.637L234.241,391h18.684&#10;&#9;&#9;&#9;L252.417,415.363z M253.238,376h-19.309l-2.021-97h23.351L253.238,376z M255.57,264h-23.976l-3.688-177h31.352L255.57,264z&#10;&#9;&#9;&#9; M259.571,72h-31.976l-0.344-16.489c-0.001-0.052-0.004-0.21,0.143-0.36c0.147-0.15,0.306-0.15,0.357-0.15h31.663&#10;&#9;&#9;&#9;c0.052,0,0.21,0,0.357,0.15c0.147,0.15,0.144,0.309,0.143,0.36L259.571,72z" style="fill: rgb(52, 58, 64);"/>
	</g>
</g><g>
</g><g>
</g><g>
</g><g>
</g><g>
</g><g>
</g><g>
</g><g>
</g><g>
</g><g>
</g><g>
</g><g>
</g><g>
</g><g>
</g><g>
</g></g></svg>