<?xml version="1.0" encoding="utf-8"?>
<!-- Generator: Adobe Illustrator 24.1.1, SVG Export Plug-In . SVG Version: 6.00 Build 0)  -->
<svg version="1.1" id="Layer_1" xmlns="http://www.w3.org/2000/svg" xmlns:xlink="http://www.w3.org/1999/xlink" x="0px" y="0px"
	 viewBox="0 0 512 512" style="enable-background:new 0 0 512 512;" xml:space="preserve">
<style type="text/css">
	.st0{fill:#CD6799;}
</style>
<g>
	<path class="st0" d="M440.9,284.7c-17.9,0.1-33.4,4.4-46.4,10.8c-4.8-9.4-9.5-17.9-10.4-24c-0.9-7.2-2.1-11.6-0.9-20.2
		c1.1-8.6,6.2-20.9,6.1-21.8c-0.1-0.9-1.1-5.3-11.4-5.4c-10.3-0.1-19.2,2-20.2,4.7c-1,2.7-3,8.9-4.3,15.2
		c-1.8,9.4-20.6,42.7-31.3,60.2c-3.5-6.8-6.5-12.8-7.1-17.6c-0.9-7.2-2.1-11.6-0.9-20.2c1.1-8.6,6.2-20.9,6.1-21.8
		c-0.1-0.9-1.1-5.3-11.4-5.4c-10.3-0.1-19.2,2-20.2,4.7c-1,2.7-2.2,9.1-4.3,15.2c-2.2,6.2-27.1,61.9-33.7,76.3
		c-3.4,7.4-6.3,13.3-8.3,17.3c0,0-0.1,0.3-0.4,0.7c-1.8,3.5-2.8,5.3-2.8,5.3v0.1c-1.4,2.5-2.9,4.9-3.6,4.9c-0.6,0-1.6-6.7,0.2-15.9
		c3.7-19.4,12.6-49.5,12.5-50.5c0-0.6,1.7-5.8-5.8-8.5c-7.3-2.7-9.9,1.8-10.6,1.8c-0.7,0-1.1,1.6-1.1,1.6s8.1-33.9-15.5-33.9
		c-14.8,0-35.2,16.2-45.3,30.8c-6.4,3.5-19.9,10.8-34.4,18.8c-5.5,3.1-11.2,6.2-16.6,9.1c-0.4-0.4-0.7-0.8-1.1-1.2
		c-28.6-30.6-81.5-52.2-79.3-93.2c0.8-15,6-54.2,101.7-101.9c78.7-38.8,141.4-28.1,152.2-4.2c15.5,34-33.6,97.3-114.9,106.4
		c-31,3.5-47.3-8.5-51.4-13c-4.3-4.7-5-5-6.5-4c-2.6,1.4-0.9,5.6,0,8c2.4,6.4,12.4,17.6,29.4,23.1c15,4.9,51.3,7.6,95.4-9.4
		c49.3-19.1,87.8-72.1,76.5-116.5C309.3,65.9,234.5,51,163.7,76.2c-42.1,15-87.7,38.5-120.5,69.2C4.1,181.9-2,213.6,0.5,226.9
		c9.1,47.1,74.1,77.8,100.1,100.5c-1.3,0.7-2.5,1.4-3.6,2c-13,6.5-62.6,32.4-74.9,59.8c-14,31,2.2,53.3,13,56.3
		c33.4,9.3,67.7-7.4,86.1-34.9c18.4-27.5,16.2-63.2,7.7-79.6c-0.1-0.2-0.2-0.4-0.4-0.6c3.4-2,6.8-4,10.2-6
		c6.6-3.9,13.2-7.6,18.8-10.6c-3.2,8.7-5.5,19.1-6.6,34c-1.4,17.6,5.8,40.4,15.2,49.4c4.2,3.9,9.2,4,12.3,4c11,0,16-9.2,21.5-20
		c6.7-13.3,12.8-28.7,12.8-28.7s-7.6,41.7,13,41.7c7.5,0,15.1-9.7,18.4-14.7v0.1c0,0,0.2-0.3,0.6-0.9c0.7-1.2,1.2-2,1.2-2v-0.2
		c3-5.2,9.7-17.1,19.7-36.8c12.9-25.4,25.3-57.2,25.3-57.2s1.1,7.8,5,20.7c2.2,7.6,6.9,15.9,10.7,23.9c-3,4.2-4.9,6.5-4.9,6.5
		l0.1,0.1c-2.4,3.2-5.1,6.6-7.9,10c-10.2,12.2-22.4,26.1-24,30.1c-2,4.8-1.5,8.2,2.2,11c2.7,2.1,7.6,2.3,12.5,2.1
		c9.2-0.7,15.6-2.9,18.8-4.3c5-1.8,10.8-4.5,16.2-8.5c10-7.4,16.1-18,15.5-31.9c-0.3-7.7-2.8-15.3-5.9-22.5c0.9-1.3,1.8-2.6,2.7-3.9
		c15.8-23.1,28.1-48.4,28.1-48.4s1.1,7.8,5,20.7c1.9,6.5,5.7,13.7,9.1,20.6c-14.9,12.1-24,26.1-27.3,35.3c-5.9,17-1.3,24.7,7.4,26.5
		c3.9,0.8,9.5-1,13.7-2.8c5.2-1.7,11.4-4.6,17.3-8.9c10-7.4,19.6-17.7,19.1-31.6c-0.3-6.4-2-12.6-4.3-18.7
		c12.6-5.2,28.9-8.1,49.7-5.7c44.5,5.2,53.3,33,51.6,44.7c-1.7,11.7-11,18-14.1,20c-3.1,2-4.1,2.6-3.8,4c0.4,2.1,1.9,2,4.5,1.6
		c3.6-0.7,23.4-9.4,24.2-31C513.3,314.5,487.2,284.5,440.9,284.7z M97.5,400.5c-14.8,16.1-35.4,22.2-44.2,17
		c-9.5-5.5-5.8-29.3,12.3-46.3c11-10.4,25.2-20,34.7-25.9c2.2-1.3,5.3-3.2,9.2-5.5c0.7-0.4,1-0.6,1-0.6c0.7-0.5,1.5-0.9,2.2-1.4
		C119.4,362.2,113,383.6,97.5,400.5z M205,327.4c-5.1,12.5-15.9,44.6-22.4,42.8c-5.6-1.5-9.1-25.8-1.1-49.8
		c4-12.1,12.5-26.5,17.5-32.1c8-9,16.9-12,19.1-8.3C220.7,284.7,208.2,319.5,205,327.4z M293.8,369.8c-2.2,1.1-4.2,1.9-5.1,1.3
		c-0.7-0.4,0.9-1.9,0.9-1.9s11.1-12,15.5-17.4c2.5-3.2,5.5-6.9,8.7-11.1v1.2C313.8,356.3,299.9,365.9,293.8,369.8z M362.2,354.2
		c-1.6-1.1-1.3-4.9,4-16.6c2.1-4.6,6.9-12.3,15.2-19.6c0.9,3,1.6,5.9,1.5,8.6C382.9,344.7,370,351.4,362.2,354.2z"/>
</g>
</svg>
