<?xml version="1.0" encoding="utf-8"?>
<!-- Generator: Adobe Illustrator 24.1.1, SVG Export Plug-In . SVG Version: 6.00 Build 0)  -->
<svg version="1.1" id="Layer_1" xmlns="http://www.w3.org/2000/svg" xmlns:xlink="http://www.w3.org/1999/xlink" x="0px" y="0px"
	 viewBox="0 0 512 512" style="enable-background:new 0 0 512 512;" xml:space="preserve">
<g id="XMLID_1_">
	<path id="XMLID_3_" d="M512,97.2c-18.9,8.3-39.3,14.4-60.5,16.6c21.9-12.9,38.6-33.3,46.1-58.2c-20.4,12.1-43.1,20.4-66.6,25.7
		C412.2,60.9,384.9,48,354.7,48c-58.2,0-105.1,46.9-105.1,105.1c0,8.3,0.8,15.9,3,24.2C164.9,172.8,87,130.5,35.5,66.9
		c-9.1,15.1-14.4,33.3-14.4,52.9c0,36.3,18.2,68.8,46.9,87.7c-17.4-0.8-33.3-5.3-47.6-12.9v0.8c0,50.7,36.3,93,83.9,102.9
		c-9.1,2.3-18.2,3.8-28,3.8c-6.8,0-13.6-0.8-19.7-1.5c13.6,41.6,52.2,71.8,98.3,72.6c-35.5,28-80.9,45.4-130.1,45.4
		c-8.3,0-16.6-0.8-25-1.5C46.9,447.3,102.1,464,161.1,464c192.9,0,298.7-160.3,298.7-298.7c0-4.5,0-9.1,0-13.6
		C479.5,136.5,497.6,118.4,512,97.2L512,97.2z"/>
</g>
</svg>
